<svg width="1200" height="630" viewBox="0 0 1200 630" xmlns="http://www.w3.org/2000/svg">
  <defs>
    <linearGradient id="bg" x1="0" y1="0" x2="1" y2="1">
      <stop offset="0" stop-color="#09111f"/>
      <stop offset="0.52" stop-color="#111827"/>
      <stop offset="1" stop-color="#020617"/>
    </linearGradient>
    <radialGradient id="cyan" cx="0.08" cy="0.05" r="0.72">
      <stop offset="0" stop-color="#22d3ee" stop-opacity="0.34"/>
      <stop offset="1" stop-color="#22d3ee" stop-opacity="0"/>
    </radialGradient>
    <radialGradient id="violet" cx="0.88" cy="0.9" r="0.68">
      <stop offset="0" stop-color="#a78bfa" stop-opacity="0.34"/>
      <stop offset="1" stop-color="#a78bfa" stop-opacity="0"/>
    </radialGradient>
    <filter id="shadow" x="-20%" y="-20%" width="140%" height="140%">
      <feDropShadow dx="0" dy="24" stdDeviation="24" flood-color="#000000" flood-opacity="0.38"/>
    </filter>
    <style>
      .mono { font-family: Menlo, Monaco, Consolas, 'Courier New', monospace; }
      .sans { font-family: Arial, Helvetica, sans-serif; }
    </style>
  </defs>

  <rect width="1200" height="630" fill="url(#bg)"/>
  <rect width="1200" height="630" fill="url(#cyan)"/>
  <rect width="1200" height="630" fill="url(#violet)"/>
  <circle cx="1050" cy="540" r="230" fill="#a78bfa" opacity="0.09"/>

  <g transform="translate(72 64)">
    <rect x="0" y="0" width="1056" height="506" rx="34" fill="#0f172a" opacity="0.9" filter="url(#shadow)"/>
    <rect x="1.5" y="1.5" width="1053" height="503" rx="32" fill="none" stroke="#334155" stroke-width="3"/>
    <rect x="28" y="28" width="1000" height="450" rx="24" fill="#020617" opacity="0.74"/>

    <g transform="translate(58 56)">
      <circle cx="12" cy="12" r="8" fill="#fb7185"/>
      <circle cx="40" cy="12" r="8" fill="#fbbf24"/>
      <circle cx="68" cy="12" r="8" fill="#34d399"/>
      <text class="mono" x="500" y="18" font-size="21" text-anchor="middle" fill="#94a3b8">pi package · npm:@micka33/pi-tasks</text>
    </g>

    <text class="sans" x="72" y="166" font-size="64" font-weight="800" fill="#f8fafc">pi-tasks</text>
    <text class="sans" x="76" y="206" font-size="25" fill="#cbd5e1">Persistent shared task lists for Pi agents and MCP clients</text>

    <g transform="translate(72 240)">
      <rect x="0" y="0" width="912" height="244" rx="18" fill="#0b1220" stroke="#1e293b" stroke-width="2"/>
      <rect x="0" y="0" width="912" height="48" rx="18" fill="#111827"/>
      <path d="M0 28 Q0 0 18 0 H894 Q912 0 912 18 V48 H0 Z" fill="#111827"/>
      <text class="mono" x="24" y="32" font-size="20" fill="#38bdf8">pi-tasks · pi:af65cf12 · 3 lists · 8 tasks</text>

      <text class="mono" x="24" y="90" font-size="19" fill="#e2e8f0">mine · </text>
      <text class="mono" x="104" y="90" font-size="19" fill="#67e8f9">run 2</text>
      <text class="mono" x="176" y="90" font-size="19" fill="#e2e8f0"> · </text>
      <text class="mono" x="212" y="90" font-size="19" fill="#94a3b8">todo 0</text>
      <text class="mono" x="286" y="90" font-size="19" fill="#e2e8f0"> · </text>
      <text class="mono" x="322" y="90" font-size="19" fill="#fbbf24">paused 0</text>

      <text class="mono" x="24" y="128" font-size="20" fill="#67e8f9">▶ task to run 10 blocked stuff done · lock expires in 1h58m · Preview</text>
      <text class="mono" x="24" y="166" font-size="20" fill="#67e8f9">▶ Finaliser l'aperçu de la galerie Pi · lock expires in 1h32m · Preview</text>
      <line x1="0" y1="184" x2="912" y2="184" stroke="#334155" stroke-width="1.5"/>
      <text class="mono" x="24" y="224" font-size="20" fill="#94a3b8">… 3 lists hidden · /task-lists</text>
      <text class="mono" x="24" y="250" font-size="18" fill="#94a3b8">mode compact · /task-widget full · /tasks &lt;list_id&gt;</text>
    </g>
  </g>
</svg>
