<svg width="1200" height="630" viewBox="0 0 1200 630" xmlns="http://www.w3.org/2000/svg">
  <defs>
    <linearGradient id="bg" x1="0" y1="0" x2="1" y2="1">
      <stop offset="0" stop-color="#09111f"/>
      <stop offset="0.5" stop-color="#111827"/>
      <stop offset="1" stop-color="#020617"/>
    </linearGradient>
    <radialGradient id="glowA" cx="0.12" cy="0.08" r="0.7">
      <stop offset="0" stop-color="#22d3ee" stop-opacity="0.38"/>
      <stop offset="1" stop-color="#22d3ee" stop-opacity="0"/>
    </radialGradient>
    <radialGradient id="glowB" cx="0.86" cy="0.86" r="0.65">
      <stop offset="0" stop-color="#a78bfa" stop-opacity="0.34"/>
      <stop offset="1" stop-color="#a78bfa" stop-opacity="0"/>
    </radialGradient>
    <filter id="shadow" x="-20%" y="-20%" width="140%" height="140%">
      <feDropShadow dx="0" dy="24" stdDeviation="24" flood-color="#000000" flood-opacity="0.38"/>
    </filter>
    <style>
      .mono { font-family: Menlo, Monaco, Consolas, 'Courier New', monospace; }
      .sans { font-family: Inter, ui-sans-serif, system-ui, -apple-system, BlinkMacSystemFont, 'Segoe UI', sans-serif; }
    </style>
  </defs>

  <rect width="1200" height="630" fill="url(#bg)"/>
  <rect width="1200" height="630" fill="url(#glowA)"/>
  <rect width="1200" height="630" fill="url(#glowB)"/>
  <circle cx="1060" cy="105" r="118" fill="#22d3ee" opacity="0.08"/>
  <circle cx="158" cy="540" r="168" fill="#a78bfa" opacity="0.07"/>

  <g transform="translate(72 70)">
    <rect x="0" y="0" width="1056" height="490" rx="34" fill="#0f172a" opacity="0.88" filter="url(#shadow)"/>
    <rect x="1.5" y="1.5" width="1053" height="487" rx="32" fill="none" stroke="#334155" stroke-width="3"/>
    <rect x="28" y="28" width="1000" height="434" rx="24" fill="#020617" opacity="0.72"/>

    <g transform="translate(58 56)">
      <circle cx="12" cy="12" r="8" fill="#fb7185"/>
      <circle cx="40" cy="12" r="8" fill="#fbbf24"/>
      <circle cx="68" cy="12" r="8" fill="#34d399"/>
      <text class="mono" x="500" y="18" font-size="21" text-anchor="middle" fill="#94a3b8">pi package · npm:@micka33/pi-tasks</text>
    </g>

    <g transform="translate(72 120)">
      <text class="sans" x="0" y="0" font-size="68" font-weight="800" fill="#f8fafc">pi-tasks</text>
      <text class="sans" x="4" y="48" font-size="26" fill="#cbd5e1">Persistent shared task lists for Pi agents and MCP clients</text>

      <g transform="translate(0 88)">
        <rect x="0" y="0" width="912" height="250" rx="18" fill="#0b1220" stroke="#1e293b" stroke-width="2"/>
        <rect x="0" y="0" width="912" height="52" rx="18" fill="#111827"/>
        <path d="M0 34 Q0 0 18 0 H894 Q912 0 912 18 V52 H0 Z" fill="#111827"/>
        <text class="mono" x="24" y="34" font-size="22" fill="#38bdf8">pi-tasks · shared queue</text>
        <text class="mono" x="594" y="34" font-size="20" fill="#94a3b8">todo 2 · run 1 · done 3</text>

        <g class="mono" font-size="24">
          <text x="28" y="94" fill="#f8fafc">▶ #1 Prepare context</text>
          <text x="620" y="94" fill="#67e8f9">claimed</text>
          <text x="28" y="142" fill="#e2e8f0">□ #2 Execute treatment</text>
          <text x="620" y="142" fill="#fbbf24">next</text>
          <text x="28" y="190" fill="#e2e8f0">✓ #3 Verify result</text>
          <text x="620" y="190" fill="#34d399">done</text>
          <text x="28" y="232" fill="#94a3b8" font-size="21">tools: task_lists · task_items · task_claims · task_audit</text>
        </g>
      </g>
    </g>

    <g transform="translate(836 392)">
      <rect x="0" y="0" width="160" height="44" rx="22" fill="#22d3ee" opacity="0.18" stroke="#22d3ee" stroke-width="1.5"/>
      <text class="mono" x="80" y="29" font-size="18" text-anchor="middle" fill="#a5f3fc">Pi extension</text>
    </g>
  </g>
</svg>
